<svg id="svg" version="1.1" xmlns="http://www.w3.org/2000/svg" xmlns:xlink="http://www.w3.org/1999/xlink" width="400" height="344.5255474452555" viewBox="0, 0, 400,344.5255474452555"><g id="svgg"><path id="path0" d="M46.715 170.316 L 46.715 323.601 63.990 323.601 L 81.265 323.601 81.265 170.316 L 81.265 17.032 63.990 17.032 L 46.715 17.032 46.715 170.316 M97.810 170.316 L 97.810 323.601 106.569 323.601 L 115.328 323.601 115.328 170.316 L 115.328 17.032 106.569 17.032 L 97.810 17.032 97.810 170.316 M131.873 170.316 L 131.873 323.601 149.148 323.601 L 166.423 323.601 166.423 170.316 L 166.423 17.032 149.148 17.032 L 131.873 17.032 131.873 170.316 M182.968 170.316 L 182.968 323.601 191.727 323.601 L 200.487 323.601 200.487 170.316 L 200.487 17.032 191.727 17.032 L 182.968 17.032 182.968 170.316 M217.032 170.316 L 217.032 323.601 225.791 323.601 L 234.550 323.601 234.550 170.316 L 234.550 17.032 225.791 17.032 L 217.032 17.032 217.032 170.316 M251.095 170.316 L 251.095 323.601 268.370 323.601 L 285.645 323.601 285.645 170.316 L 285.645 17.032 268.370 17.032 L 251.095 17.032 251.095 170.316 M302.190 170.316 L 302.190 323.601 310.949 323.601 L 319.708 323.601 319.708 170.316 L 319.708 17.032 310.949 17.032 L 302.190 17.032 302.190 170.316 M336.253 170.316 L 336.253 323.601 345.012 323.601 L 353.771 323.601 353.771 170.316 L 353.771 17.032 345.012 17.032 L 336.253 17.032 336.253 170.316 " stroke="none" fill="#000000" fill-rule="evenodd"></path></g></svg>